<?xml version="1.0" encoding="utf-8"?>
<!-- Generator: Adobe Illustrator 16.0.0, SVG Export Plug-In . SVG Version: 6.00 Build 0)  -->
<!DOCTYPE svg PUBLIC "-//W3C//DTD SVG 1.1//EN" "http://www.w3.org/Graphics/SVG/1.1/DTD/svg11.dtd">
<svg version="1.1" id="Layer_1" xmlns="http://www.w3.org/2000/svg" xmlns:xlink="http://www.w3.org/1999/xlink" x="0px" y="0px"
	 width="20px" height="20px" viewBox="0 0 20 20" enable-background="new 0 0 20 20" xml:space="preserve">
<path fill-rule="evenodd" clip-rule="evenodd" fill="#FFFFFF" d="M9.068,7.673h1.868v2.337l1.402-0.935l1.037,0.964l-3.374,3.241
	l-3.342-3.226l1.005-0.979l1.404,0.935V7.673z M0.187,12.169c0,2.161,1.528,3.914,3.415,3.914c0.11,0,12.008,0,12.008,0
	c2.329-0.043,4.205-2.043,4.205-4.505c0-2.489-1.918-4.506-4.281-4.506l-0.169,0.002C14.707,4.73,12.392,3,9.64,3
	C6.443,3,3.842,5.338,3.736,8.257L3.601,8.252C1.714,8.252,0.187,10.006,0.187,12.169z"/>
</svg>
