<?xml version="1.0" encoding="utf-8"?>
<!-- Generator: Adobe Illustrator 16.0.0, SVG Export Plug-In . SVG Version: 6.00 Build 0)  -->
<!DOCTYPE svg PUBLIC "-//W3C//DTD SVG 1.1//EN" "http://www.w3.org/Graphics/SVG/1.1/DTD/svg11.dtd">
<svg version="1.1" id="Layer_1" xmlns="http://www.w3.org/2000/svg" xmlns:xlink="http://www.w3.org/1999/xlink" x="0px" y="0px"
	 width="176.5px" height="53.616px" viewBox="0 2.764 176.5 53.616" enable-background="new 0 2.764 176.5 53.616"
	 xml:space="preserve">
<path fill="#FFFFFF" d="M1.843,2.764L5.989,49.28l18.606,5.258l18.708-5.258l4.146-46.516H1.843z M38.853,13.787l-0.304,2.932
	l-0.101,1.213H24.595v0h-7.989l0.506,5.865h7.584h11.628h1.618l-0.202,1.517l-1.314,15.067l-0.101,1.011l-11.629,3.208v0.029h-0.101
	l-11.73-3.236l-0.708-9h2.629h3.033l0.405,4.549l6.371,1.719l0.101-0.027l6.27-1.692l0.708-7.382h-6.977H11.854l-1.416-15.774
	l-0.101-1.517h14.258h0.101l14.258,0L38.853,13.787z"/>
<polygon fill="#E3E3E3" points="31.673,29.561 24.696,29.561 24.696,29.561 24.696,38.635 30.965,36.943 "/>
<polygon fill="#E3E3E3" points="24.696,6.505 24.696,12.27 38.954,12.27 38.853,13.787 38.549,16.719 38.448,17.933 24.696,17.933 
	24.696,23.797 36.324,23.797 37.942,23.797 37.74,25.314 36.426,40.381 36.325,41.393 24.696,44.601 24.696,50.493 39.763,46.347 
	43.302,6.505 "/>
<g enable-background="new    ">
	<path fill="#FFFFFF" d="M56.733,19.833v2.628h0.776v1.92h-3.732l0.027-1.92h0.776v-7.123h-0.776v-1.947h3.705v1.947h-0.776v2.479
		h1.948v-2.479h-0.804v-1.947h3.718v1.947h-0.763v4.476v2.647h0.763v1.92h-3.718v-1.92h0.804v-2.628H56.733z"/>
	<path fill="#FFFFFF" d="M67.561,24.381h-3.664v-1.92h0.722v-7.123h-0.695v1.321h-1.771v-3.228h7.109v3.228h-1.771v-1.321h-0.695
		v7.123h0.763L67.561,24.381L67.561,24.381z"/>
	<path fill="#FFFFFF" d="M76.791,13.391h3.817v1.974h-0.653v7.083h0.653v1.934h-3.459v-1.934h0.572v-4.045l-1.703,5.979h-1.444
		l-1.675-5.979v4.045h0.695v1.934h-3.732v-1.934h0.79v-7.082h-0.79v-1.975h4.008l1.521,7.422L76.791,13.391z"/>
	<path fill="#FFFFFF" d="M84.19,22.461h2.057v-1.458h2.083v3.378h-7.096v-1.92h0.804v-7.123h-0.804v-1.947h3.718v1.947h-0.763
		L84.19,22.461L84.19,22.461z"/>
	<path fill="#FFFFFF" d="M89.95,19.969l-1.103-1.359v-5.219h6.632v2.955h-2.234v-0.926h-2.274v2.37h3.404l1.144,1.117v4.522
		l-0.98,0.953h-4.549l-1.144-1.144V21.29h2.029v1.117h2.52v-2.438L89.95,19.969L89.95,19.969z"/>
	<path fill="#FFFFFF" d="M106.825,24.381h-6.347v-1.92h0.79l0.014-7.15h-0.831v-1.975h6.374l1.104,0.979v3.388l-0.79,0.938
		l0.79,0.816v3.727L106.825,24.381z M105.641,15.365h-2.207v2.424h2.207V15.365z M105.641,19.764h-2.207v2.697h2.207V19.764z"/>
	<path fill="#FFFFFF" d="M111.483,22.461h2.056v-1.458h2.084v3.378h-7.096v-1.92h0.804v-7.123h-0.804v-1.947h3.719v1.947h-0.763
		V22.461z"/>
	<path fill="#FFFFFF" d="M119.027,24.381h-2.86v-1.893h0.396l1.647-7.15h-0.477l-0.014-1.947h3.269v1.947h-0.368l1.812,7.15h0.395
		v1.893h-2.929v-1.893h0.504l-0.15-0.626h-1.539l-0.164,0.626h0.477L119.027,24.381L119.027,24.381z M119.886,20.391l-0.422-1.702
		l-0.437,1.702H119.886z"/>
	<path fill="#FFFFFF" d="M126.941,24.381h-3.609v-1.974h0.817v-7.096h-0.817v-1.92h3.169l1.584,4.698V15.27h-0.776v-1.879h3.758
		v1.92h-0.776v7.096h0.776v1.974h-2.968l-1.825-5.625v3.65h0.667L126.941,24.381L126.941,24.381z"/>
	<path fill="#FFFFFF" d="M135.63,15.338v-1.947h3.527v1.947h-0.572l-2.356,3.125l2.301,3.998h0.627v1.92h-3.527v-1.92h0.6
		l-1.199-2.329l-0.531,0.749v1.58h0.776v1.92h-3.705l-0.013-1.92h0.79v-7.123h-0.79v-1.947h3.718v1.947H134.5v2.206l1.703-2.206
		H135.63z"/>
</g>
<g enable-background="new    ">
	<path fill="#FFFFFF" d="M57.904,40.725h-1.948l-1.334-9.016h-0.667v-1.975h3.364v1.975h-0.545l0.512,5.16l1.105-4.331h1.425
		l1.212,4.251l0.581-5.081h-0.708v-1.975h3.255v1.975h-0.64l-1.294,9.016h-1.948l-1.185-4.958L57.904,40.725z"/>
	<path fill="#FFFFFF" d="M65.749,40.725l-0.885-0.885v-9.045l1.049-1.061h4.522l1.035,1.02v8.95l-1.008,1.021H65.749z
		 M69.317,31.708h-2.302v7.109h2.302V31.708z"/>
	<path fill="#FFFFFF" d="M75.841,40.725h-3.718v-1.92h0.776v-7.096h-0.776v-1.975h6.018l1.037,1.226v4.085l-1.158,1.117H77.34
		l1.484,2.642h0.409v1.921h-3.078v-1.921h0.449l-1.362-2.56h-0.095v2.56h0.695L75.841,40.725L75.841,40.725z M76.904,31.708h-1.757
		v2.479h1.757V31.708z"/>
	<path fill="#FFFFFF" d="M85.838,40.725h-6.061l-0.014-1.907h0.817v-7.109h-0.817v-1.975h6.102l1.212,1.06v8.83L85.838,40.725z
		 M84.775,31.708h-2.043v7.109h2.043V31.708z"/>
	<path fill="#FFFFFF" d="M91.775,40.725H87.99v-1.934h0.763v-7.082H87.99v-1.975h5.656l1.058,1.073v4.131l-1.117,1.142h-2.602
		L91,38.791h0.79L91.775,40.725z M92.402,31.708h-1.444v2.396h1.444V31.708z"/>
	<path fill="#FFFFFF" d="M98.939,40.725h-3.718v-1.92h0.776v-7.096h-0.776v-1.975h6.018l1.037,1.226v4.085l-1.157,1.117h-0.681
		l1.485,2.642h0.409v1.921h-3.079v-1.921h0.45l-1.362-2.56h-0.096v2.56h0.695V40.725L98.939,40.725z M100.002,31.708h-1.756v2.479
		h1.756V31.708L100.002,31.708z"/>
	<path fill="#FFFFFF" d="M109.903,40.725h-7.164v-1.92h0.776v-7.124h-0.83v-1.947h7.218v3.146h-2.083v-1.198h-2.152v2.547h1.648
		v1.934h-1.648v2.643h2.152v-1.458h2.083V40.725z"/>
	<path fill="#FFFFFF" d="M110.421,37.483h2.152v1.335h2.479v-2.656h-3.599l-1.032-1.01v-4.449l1.008-0.969h4.685l1.13,1.122v2.12
		h-2.193v-1.266h-2.479v2.479h3.623l1.008,1.008v4.494l-1.048,1.036h-4.549l-1.185-1.172V37.483L110.421,37.483z"/>
	<path fill="#FFFFFF" d="M117.707,37.483h2.151v1.335h2.479v-2.656h-3.599l-1.032-1.01v-4.449l1.008-0.969h4.685l1.13,1.122v2.12
		h-2.192v-1.266h-2.479v2.479h3.623l1.008,1.008v4.494l-1.049,1.036h-4.549l-1.185-1.172L117.707,37.483L117.707,37.483z"/>
	<path fill="#FFFFFF" d="M134.691,40.725h-3.664v-1.92h0.722v-7.124h-0.695v1.321h-1.77v-3.228h7.109v3.228h-1.771v-1.321h-0.695
		v7.124h0.763L134.691,40.725L134.691,40.725z"/>
	<path fill="#FFFFFF" d="M140.043,36.176v2.628h0.776v1.92h-3.732l0.026-1.92h0.776v-7.124h-0.776v-1.947h3.705v1.947h-0.776v2.479
		h1.947v-2.479h-0.803v-1.947h3.717v1.947h-0.762v4.476v2.647h0.762v1.92h-3.717v-1.92h0.803v-2.628H140.043z"/>
	<path fill="#FFFFFF" d="M152.626,40.725h-7.163v-1.92h0.776v-7.124h-0.831v-1.947h7.218v3.146h-2.083v-1.198h-2.152v2.547h1.648
		v1.934h-1.648v2.643h2.152v-1.458h2.083V40.725z"/>
	<path fill="#FFFFFF" d="M160.073,29.734h3.818v1.975h-0.654v7.082h0.654v1.934h-3.459v-1.934h0.572v-4.045l-1.702,5.979h-1.444
		l-1.675-5.979v4.045h0.695v1.934h-3.732v-1.934h0.79v-7.082h-0.79v-1.975h4.008l1.521,7.422L160.073,29.734z"/>
	<path fill="#FFFFFF" d="M171.639,40.725h-7.164v-1.92h0.776v-7.124h-0.831v-1.947h7.218v3.146h-2.084v-1.198h-2.151v2.547h1.647
		v1.934h-1.647v2.643h2.151v-1.458h2.084V40.725z"/>
</g>
</svg>
